<?xml version="1.0" encoding="UTF-8" standalone="no"?>
<svg
   xmlns:dc="http://purl.org/dc/elements/1.1/"
   xmlns:cc="http://creativecommons.org/ns#"
   xmlns:rdf="http://www.w3.org/1999/02/22-rdf-syntax-ns#"
   xmlns:svg="http://www.w3.org/2000/svg"
   xmlns="http://www.w3.org/2000/svg"
   xmlns:xlink="http://www.w3.org/1999/xlink"
   xmlns:sodipodi="http://sodipodi.sourceforge.net/DTD/sodipodi-0.dtd"
   xmlns:inkscape="http://www.inkscape.org/namespaces/inkscape"
   width="271mm"
   height="271mm"
   viewBox="0 0 271 271"
   version="1.1"
   id="svg8"
   inkscape:version="1.0.1 (3bc2e813f5, 2020-09-07)"
   sodipodi:docname="logo.svg">
  <defs
     id="defs2">
    <linearGradient
       inkscape:collect="always"
       id="linearGradient1035">
      <stop
         style="stop-color:#e5690e;stop-opacity:1"
         offset="0"
         id="stop1031" />
      <stop
         style="stop-color:#e03b07;stop-opacity:1"
         offset="1"
         id="stop1033" />
    </linearGradient>
    <linearGradient
       inkscape:collect="always"
       id="linearGradient1025">
      <stop
         style="stop-color:#e5690e;stop-opacity:1;"
         offset="0"
         id="stop1021" />
      <stop
         style="stop-color:#e03b07;stop-opacity:1"
         offset="1"
         id="stop1023" />
    </linearGradient>
    <rect
       x="100.27952"
       y="174.36664"
       width="162.39296"
       height="59.120018"
       id="rect21" />
    <rect
       x="100.27952"
       y="174.36664"
       width="162.39296"
       height="59.120018"
       id="rect21-4" />
    <rect
       x="100.27952"
       y="174.36664"
       width="162.39296"
       height="59.120018"
       id="rect1198" />
    <linearGradient
       inkscape:collect="always"
       xlink:href="#linearGradient1025"
       id="linearGradient1029"
       gradientUnits="userSpaceOnUse"
       x1="144.22908"
       y1="57.407169"
       x2="144.22908"
       y2="194.72592"
       gradientTransform="matrix(1.2810123,0,0,1.2810123,-39.884373,-18.684203)" />
    <linearGradient
       inkscape:collect="always"
       xlink:href="#linearGradient1035"
       id="linearGradient1037"
       x1="140.44426"
       y1="56.708691"
       x2="140.44426"
       y2="194.29202"
       gradientUnits="userSpaceOnUse"
       gradientTransform="matrix(1.2810123,0,0,1.2810123,-39.884368,-18.684203)" />
  </defs>
  <sodipodi:namedview
     id="base"
     pagecolor="#ffffff"
     bordercolor="#666666"
     borderopacity="1.0"
     inkscape:pageopacity="0.0"
     inkscape:pageshadow="2"
     inkscape:zoom="0.5"
     inkscape:cx="457.51246"
     inkscape:cy="629.08477"
     inkscape:document-units="mm"
     inkscape:current-layer="layer1"
     inkscape:document-rotation="0"
     showgrid="false"
     inkscape:window-width="1920"
     inkscape:window-height="1017"
     inkscape:window-x="-8"
     inkscape:window-y="-8"
     inkscape:window-maximized="1" />
  <metadata
     id="metadata5">
    <rdf:RDF>
      <cc:Work
         rdf:about="">
        <dc:format>image/svg+xml</dc:format>
        <dc:type
           rdf:resource="http://purl.org/dc/dcmitype/StillImage" />
        <dc:title />
      </cc:Work>
    </rdf:RDF>
  </metadata>
  <g
     inkscape:label="Capa 1"
     inkscape:groupmode="layer"
     id="layer1">
    <path
       style="mix-blend-mode:normal;fill:#ffffff;fill-opacity:1;stroke:url(#linearGradient1029);stroke-width:8.61889;stroke-linecap:butt;stroke-linejoin:round;stroke-miterlimit:4;stroke-dasharray:none;stroke-opacity:1"
       d="M 76.310895,57.292358 49.750873,225.95234 H 234.11136 L 207.55133,57.292358 Z"
       id="path869" />
    <rect
       style="opacity:1;fill:#ffffff;fill-opacity:1;stroke:none;stroke-width:48.9271;stroke-linecap:round;stroke-linejoin:round;stroke-miterlimit:4;stroke-dasharray:none;stroke-opacity:1"
       id="rect940"
       width="11.193889"
       height="157.28214"
       x="94.889236"
       y="52.982681" />
    <rect
       style="opacity:1;fill:#ffffff;fill-opacity:1;stroke:none;stroke-width:48.9271;stroke-linecap:round;stroke-linejoin:round;stroke-miterlimit:4;stroke-dasharray:none;stroke-opacity:1"
       id="rect942"
       width="11.193889"
       height="157.28214"
       x="177.58928"
       y="52.982681" />
    <rect
       style="fill:none;stroke-width:0.8283;stroke-linecap:round;fill-opacity:1;opacity:1"
       id="rect30"
       width="269.99905"
       height="269.99905"
       x="1"
       y="1" />
    <path
       id="rect871"
       style="opacity:1;fill:#e03b07;fill-opacity:1;stroke:none;stroke-width:3.03975;stroke-linecap:round;stroke-linejoin:round;stroke-miterlimit:4;stroke-dasharray:none;stroke-opacity:1"
       d="m 141.93112,3.1671348 c -24.93198,0 -45.003481,21.1544922 -45.003481,47.4316342 0,0.176731 0.0038,0.352658 0.0064,0.528925 h -0.0064 v 23.016429 a 5.5122461,5.5122461 0 0 0 -1.954172,4.209539 5.5122461,5.5122461 0 0 0 5.512323,5.512321 5.5122461,5.5122461 0 0 0 5.51231,-5.512321 5.5122461,5.5122461 0 0 0 -1.95284,-4.208875 V 52.036594 h 0.005 c -10e-4,-0.148392 -0.005,-0.296063 -0.005,-0.444852 0,-22.12125 16.89703,-39.930061 37.88586,-39.930061 h 6.5e-4 c 20.98886,0 37.88585,17.808811 37.88585,39.930061 0,0.148789 -0.004,0.29646 -0.005,0.444852 h 0.005 v 22.107529 a 5.5122461,5.5122461 0 0 0 -1.95349,4.209539 5.5122461,5.5122461 0 0 0 5.51232,5.512321 5.5122461,5.5122461 0 0 0 5.51232,-5.512321 5.5122461,5.5122461 0 0 0 -1.95351,-4.209539 V 51.127694 h -0.006 c 0.001,-0.176267 0.006,-0.352194 0.006,-0.528925 0,-26.277142 -20.07149,-47.4316342 -45.00349,-47.4316342 z" />
    <path
       id="path958"
       style="fill:url(#linearGradient1037);fill-opacity:1;stroke:none;stroke-width:0.355711px;stroke-linecap:butt;stroke-linejoin:miter;stroke-opacity:1"
       d="M 107.67063,104.99779 79.808442,108.755 v 2.45248 l 27.862188,-3.79474 v -1.11717 l 4.36511,3.13542 0.81702,-2.18499 z m 16.81293,2.38161 v 30.32858 l 79.60149,40.7241 v -5.88384 z m -16.34049,32.54206 -28.302672,2.44343 v 2.65672 l 27.698932,-2.27946 0.63499,-1.09911 3.7593,1.75772 v -1.76744 z m 16.34049,1.2443 v 30.52725 l 79.60149,14.00266 v -5.91231 z m 0,33.69252 v 30.74748 l 79.60149,-12.24981 v -6.8905 z m -16.83446,0.1577 -27.871923,0.5037 v 2.43648 h 27.966403 v -1.61945 l 4.07193,0.503 z" />
    <g
       aria-label="batoilogic"
       id="text1041"
       style="font-size:36.153px;line-height:1.25;font-family:Montserrat;-inkscape-font-specification:Montserrat;stroke-width:0.338934">
      <path
         d="m 80.852355,252.86215 q 0,4.3779 -2.012423,7.04348 -2.012423,2.64793 -5.401767,2.64793 -3.61883,0 -5.595947,-2.55966 l -0.158876,2.2066 h -3.000981 v -27.11475 h 3.265774 v 10.11507 q 1.977117,-2.45374 5.454725,-2.45374 3.477608,0 5.454725,2.63027 1.99477,2.63027 1.99477,7.20236 z m -3.265774,-0.37071 q 0,-3.33638 -1.288657,-5.15462 -1.288657,-1.81825 -3.707095,-1.81825 -3.230468,0 -4.642694,3.00099 v 8.26152 q 1.50049,3.00098 4.678,3.00098 2.347827,0 3.654136,-1.81824 1.30631,-1.81824 1.30631,-5.47238 z"
         style="fill:#e5690e;fill-opacity:1;stroke-width:0.338934"
         id="path28" />
      <path
         d="m 96.757556,262.2005 q -0.282445,-0.56489 -0.458973,-2.01242 -2.277216,2.36548 -5.437072,2.36548 -2.824454,0 -4.642695,-1.58876 -1.800589,-1.60641 -1.800589,-4.06015 0,-2.98333 2.259562,-4.62504 2.277216,-1.65937 6.390325,-1.65937 h 3.17751 v -1.50049 q 0,-1.71232 -1.023864,-2.71853 -1.023864,-1.02387 -3.018634,-1.02387 -1.747631,0 -2.93037,0.88264 -1.18274,0.88264 -1.18274,2.136 h -3.283427 q 0,-1.42988 1.006212,-2.75385 1.023864,-1.34161 2.753841,-2.11834 1.747631,-0.77672 3.830665,-0.77672 3.301079,0 5.17228,1.65937 1.8712,1.64171 1.941811,4.53677 v 8.79111 q 0,2.63028 0.670812,4.18373 v 0.28244 z m -5.419419,-2.48905 q 1.535796,0 2.912717,-0.79438 1.376921,-0.79437 1.99477,-2.06538 v -3.91893 h -2.55966 q -6.001963,0 -6.001963,3.51292 0,1.53579 1.023864,2.40078 1.023864,0.86499 2.630272,0.86499 z"
         style="fill:#e5690e;fill-opacity:1;stroke-width:0.338934"
         id="path30" />
      <path
         d="m 109.06158,238.47509 v 4.62505 h 3.56587 v 2.52435 h -3.56587 v 11.84505 q 0,1.14744 0.47662,1.72998 0.47663,0.56489 1.62407,0.56489 0.56489,0 1.55344,-0.21183 v 2.64792 q -1.28865,0.35306 -2.5067,0.35306 -2.18895,0 -3.30108,-1.32397 -1.11213,-1.32396 -1.11213,-3.76005 v -11.84505 h -3.4776 v -2.52435 h 3.4776 v -4.62505 z"
         style="fill:#e5690e;fill-opacity:1;stroke-width:0.338934"
         id="path32" />
      <path
         d="m 115.22242,252.47379 q 0,-2.8068 1.09447,-5.04871 1.11213,-2.24191 3.07159,-3.45995 1.97712,-1.21805 4.50148,-1.21805 3.90127,0 6.30206,2.70088 2.41844,2.70089 2.41844,7.18471 v 0.22948 q 0,2.78915 -1.07683,5.01341 -1.05917,2.2066 -3.05394,3.4423 -1.97711,1.2357 -4.55443,1.2357 -3.88362,0 -6.30206,-2.70089 -2.40078,-2.70088 -2.40078,-7.14939 z m 3.28342,0.38836 q 0,3.17751 1.46519,5.10167 1.48284,1.92416 3.95423,1.92416 2.48905,0 3.95424,-1.94181 1.46518,-1.95947 1.46518,-5.47238 0,-3.1422 -1.50049,-5.08402 -1.48284,-1.95946 -3.95423,-1.95946 -2.41844,0 -3.90128,1.92416 -1.48284,1.92416 -1.48284,5.50768 z"
         style="fill:#e5690e;fill-opacity:1;stroke-width:0.338934"
         id="path34" />
      <path
         d="m 140.25413,262.2005 h -3.26577 v -19.10036 h 3.26577 z m -3.53056,-24.16673 q 0,-0.79437 0.47662,-1.34161 0.49428,-0.54724 1.44753,-0.54724 0.95326,0 1.44754,0.54724 0.49428,0.54724 0.49428,1.34161 0,0.79438 -0.49428,1.32397 -0.49428,0.52958 -1.44754,0.52958 -0.95325,0 -1.44753,-0.52958 -0.47662,-0.52959 -0.47662,-1.32397 z"
         style="fill:#e5690e;fill-opacity:1;stroke-width:0.338934"
         id="path36" />
      <path
         d="m 149.02759,262.2005 h -3.26577 v -27.11475 h 3.26577 z"
         style="fill:#e03b07;fill-opacity:1;stroke-width:0.338934"
         id="path38" />
      <path
         d="m 153.38784,252.47379 q 0,-2.8068 1.09447,-5.04871 1.11213,-2.24191 3.0716,-3.45995 1.97711,-1.21805 4.50147,-1.21805 3.90127,0 6.30206,2.70088 2.41844,2.70089 2.41844,7.18471 v 0.22948 q 0,2.78915 -1.07683,5.01341 -1.05917,2.2066 -3.05394,3.4423 -1.97711,1.2357 -4.55443,1.2357 -3.88362,0 -6.30206,-2.70089 -2.40078,-2.70088 -2.40078,-7.14939 z m 3.28342,0.38836 q 0,3.17751 1.46519,5.10167 1.48284,1.92416 3.95423,1.92416 2.48905,0 3.95424,-1.94181 1.46518,-1.95947 1.46518,-5.47238 0,-3.1422 -1.50049,-5.08402 -1.48284,-1.95946 -3.95423,-1.95946 -2.41844,0 -3.90128,1.92416 -1.48284,1.92416 -1.48284,5.50768 z"
         style="fill:#e03b07;fill-opacity:1;stroke-width:0.338934"
         id="path40" />
      <path
         d="m 174.09462,252.49144 q 0,-4.46616 2.06538,-7.09644 2.06538,-2.64792 5.47238,-2.64792 3.49526,0 5.45472,2.4714 l 0.15888,-2.11834 h 2.98332 v 18.64139 q 0,3.70709 -2.2066,5.84308 -2.18895,2.136 -5.89605,2.136 -2.06538,0 -4.04249,-0.88264 -1.97712,-0.88265 -3.01864,-2.41844 l 1.69467,-1.95947 q 2.10069,2.59497 5.13698,2.59497 2.38313,0 3.70709,-1.34162 1.34162,-1.34161 1.34162,-3.7777 v -1.64172 q -1.95947,2.25957 -5.34881,2.25957 -3.35404,0 -5.43707,-2.70089 -2.06538,-2.70088 -2.06538,-7.36123 z m 3.28342,0.37071 q 0,3.23047 1.32397,5.08402 1.32396,1.83589 3.70709,1.83589 3.08925,0 4.53678,-2.8068 v -8.7205 q -1.50049,-2.73619 -4.50147,-2.73619 -2.38314,0 -3.72475,1.85355 -1.34162,1.85355 -1.34162,5.49003 z"
         style="fill:#e03b07;fill-opacity:1;stroke-width:0.338934"
         id="path42" />
      <path
         d="m 198.70266,262.2005 h -3.26578 v -19.10036 h 3.26578 z m -3.53057,-24.16673 q 0,-0.79437 0.47663,-1.34161 0.49428,-0.54724 1.44753,-0.54724 0.95325,0 1.44753,0.54724 0.49428,0.54724 0.49428,1.34161 0,0.79438 -0.49428,1.32397 -0.49428,0.52958 -1.44753,0.52958 -0.95325,0 -1.44753,-0.52958 -0.47663,-0.52959 -0.47663,-1.32397 z"
         style="fill:#e03b07;fill-opacity:1;stroke-width:0.338934"
         id="path44" />
      <path
         d="m 211.58923,259.88798 q 1.74763,0 3.05394,-1.05917 1.30631,-1.05917 1.44754,-2.64793 h 3.08924 q -0.0883,1.64172 -1.12978,3.12456 -1.04152,1.48283 -2.78915,2.36548 -1.72997,0.88264 -3.67179,0.88264 -3.90127,0 -6.21379,-2.59497 -2.29487,-2.61262 -2.29487,-7.13174 v -0.54724 q 0,-2.78915 1.02386,-4.96045 1.02387,-2.1713 2.93037,-3.37169 1.92416,-1.20039 4.53678,-1.20039 3.21282,0 5.33116,1.92416 2.13599,1.92416 2.27721,4.99575 h -3.08924 q -0.14123,-1.85355 -1.41223,-3.03629 -1.25335,-1.20039 -3.1069,-1.20039 -2.48905,0 -3.86597,1.80059 -1.35927,1.78294 -1.35927,5.17228 v 0.61785 q 0,3.30108 1.35927,5.08401 1.35927,1.78294 3.88362,1.78294 z"
         style="fill:#e03b07;fill-opacity:1;stroke-width:0.338934"
         id="path46" />
    </g>
  </g>
</svg>
