<?xml version="1.0" encoding="UTF-8" standalone="no"?>
<svg
   xmlns:dc="http://purl.org/dc/elements/1.1/"
   xmlns:cc="http://creativecommons.org/ns#"
   xmlns:rdf="http://www.w3.org/1999/02/22-rdf-syntax-ns#"
   xmlns:svg="http://www.w3.org/2000/svg"
   xmlns="http://www.w3.org/2000/svg"
   xmlns:xlink="http://www.w3.org/1999/xlink"
   xmlns:sodipodi="http://sodipodi.sourceforge.net/DTD/sodipodi-0.dtd"
   xmlns:inkscape="http://www.inkscape.org/namespaces/inkscape"
   width="728mm"
   height="271mm"
   viewBox="0 0 728 271"
   version="1.1"
   id="svg8"
   inkscape:version="1.0.1 (3bc2e813f5, 2020-09-07)"
   sodipodi:docname="text-logo.svg">
  <defs
     id="defs2">
    <linearGradient
       inkscape:collect="always"
       id="linearGradient1035">
      <stop
         style="stop-color:#e5690e;stop-opacity:1"
         offset="0"
         id="stop1031" />
      <stop
         style="stop-color:#e03b07;stop-opacity:1"
         offset="1"
         id="stop1033" />
    </linearGradient>
    <linearGradient
       inkscape:collect="always"
       id="linearGradient1025">
      <stop
         style="stop-color:#e5690e;stop-opacity:1;"
         offset="0"
         id="stop1021" />
      <stop
         style="stop-color:#e03b07;stop-opacity:1"
         offset="1"
         id="stop1023" />
    </linearGradient>
    <rect
       x="100.27952"
       y="174.36664"
       width="162.39296"
       height="59.120018"
       id="rect21" />
    <rect
       x="100.27952"
       y="174.36664"
       width="162.39296"
       height="59.120018"
       id="rect21-4" />
    <rect
       x="100.27952"
       y="174.36664"
       width="162.39296"
       height="59.120018"
       id="rect1198" />
    <linearGradient
       inkscape:collect="always"
       xlink:href="#linearGradient1025"
       id="linearGradient1029"
       gradientUnits="userSpaceOnUse"
       x1="144.22908"
       y1="57.407169"
       x2="144.22908"
       y2="194.72592"
       gradientTransform="matrix(1.509319,0,0,1.509319,-98.217347,-23.765423)" />
    <linearGradient
       inkscape:collect="always"
       xlink:href="#linearGradient1035"
       id="linearGradient1037"
       x1="140.44426"
       y1="56.708691"
       x2="140.44426"
       y2="194.29202"
       gradientUnits="userSpaceOnUse"
       gradientTransform="matrix(1.509319,0,0,1.509319,-98.217341,-23.765423)" />
  </defs>
  <sodipodi:namedview
     id="base"
     pagecolor="#ffffff"
     bordercolor="#666666"
     borderopacity="1.0"
     inkscape:pageopacity="0.0"
     inkscape:pageshadow="2"
     inkscape:zoom="0.25"
     inkscape:cx="1117.8027"
     inkscape:cy="630.91065"
     inkscape:document-units="mm"
     inkscape:current-layer="layer1"
     inkscape:document-rotation="0"
     showgrid="false"
     inkscape:window-width="1920"
     inkscape:window-height="1017"
     inkscape:window-x="-8"
     inkscape:window-y="-8"
     inkscape:window-maximized="1" />
  <metadata
     id="metadata5">
    <rdf:RDF>
      <cc:Work
         rdf:about="">
        <dc:format>image/svg+xml</dc:format>
        <dc:type
           rdf:resource="http://purl.org/dc/dcmitype/StillImage" />
        <dc:title />
      </cc:Work>
    </rdf:RDF>
  </metadata>
  <g
     inkscape:label="Capa 1"
     inkscape:groupmode="layer"
     id="layer1">
    <path
       style="mix-blend-mode:normal;fill:#ffffff;fill-opacity:1;stroke:url(#linearGradient1029);stroke-width:10.155;stroke-linecap:butt;stroke-linejoin:round;stroke-miterlimit:4;stroke-dasharray:none;stroke-opacity:1"
       d="M 38.686655,65.75195 7.3930135,264.47122 H 224.61084 L 193.31719,65.75195 Z"
       id="path869" />
    <rect
       style="opacity:1;fill:#ffffff;fill-opacity:1;stroke:none;stroke-width:57.6471;stroke-linecap:round;stroke-linejoin:round;stroke-miterlimit:4;stroke-dasharray:none;stroke-opacity:1"
       id="rect940"
       width="13.188904"
       height="185.31352"
       x="60.576103"
       y="60.674191" />
    <rect
       style="opacity:1;fill:#ffffff;fill-opacity:1;stroke:none;stroke-width:57.6471;stroke-linecap:round;stroke-linejoin:round;stroke-miterlimit:4;stroke-dasharray:none;stroke-opacity:1"
       id="rect942"
       width="13.188904"
       height="185.31352"
       x="158.01529"
       y="60.674191" />
    <rect
       style="opacity:1;fill:none;fill-opacity:1;stroke-width:0.8283;stroke-linecap:round"
       id="rect30"
       width="269.99905"
       height="269.99905"
       x="1"
       y="1" />
    <path
       id="rect871"
       style="opacity:1;fill:#e03b07;fill-opacity:1;stroke:none;stroke-width:3.5815;stroke-linecap:round;stroke-linejoin:round;stroke-miterlimit:4;stroke-dasharray:none;stroke-opacity:1"
       d="m 116.00191,1.9803282 c -29.375417,0 -53.024121,24.9247308 -53.024121,55.8850788 0,0.208228 0.0045,0.415509 0.0075,0.623191 h -0.0075 v 27.118499 a 6.4946581,6.4946581 0 0 0 -2.302452,4.959778 6.4946581,6.4946581 0 0 0 6.494749,6.494746 6.4946581,6.4946581 0 0 0 6.494731,-6.494746 6.4946581,6.4946581 0 0 0 -2.30088,-4.958996 V 59.559486 h 0.0059 c -0.0011,-0.17484 -0.0059,-0.348828 -0.0059,-0.524135 0,-26.063778 19.908463,-47.046546 44.637973,-47.046546 h 7.7e-4 c 24.72957,0 44.638,20.982768 44.638,47.046546 0,0.175307 -0.005,0.349295 -0.006,0.524135 h 0.006 v 26.047611 a 6.4946581,6.4946581 0 0 0 -2.30165,4.959778 6.4946581,6.4946581 0 0 0 6.49474,6.494746 6.4946581,6.4946581 0 0 0 6.49474,-6.494746 6.4946581,6.4946581 0 0 0 -2.30166,-4.959778 V 58.488598 h -0.007 c 0.001,-0.207682 0.007,-0.414963 0.007,-0.623191 0,-30.960348 -23.6487,-55.8850788 -53.02417,-55.8850788 z" />
    <path
       id="path958"
       style="fill:url(#linearGradient1037);fill-opacity:1;stroke:none;stroke-width:0.419107px;stroke-linecap:butt;stroke-linejoin:miter;stroke-opacity:1"
       d="m 75.635429,121.95973 -32.827881,4.42683 v 2.88957 l 32.827881,-4.47106 v -1.31627 l 5.143077,3.69423 0.96264,-2.57441 z m 19.809388,2.80607 v 35.73385 l 93.788313,47.98209 v -6.93249 z m -19.252748,38.34181 -33.34687,2.87891 v 3.13022 l 32.63553,-2.68573 0.74817,-1.29499 4.429287,2.07099 v -2.08244 z m 19.252748,1.46607 v 35.96793 l 93.788313,16.49825 v -6.96602 z m 0,39.69732 v 36.22741 l 93.788313,-14.43302 v -8.11855 z m -19.834748,0.18581 -32.839358,0.59347 v 2.87072 h 32.950668 v -1.90808 l 4.797647,0.59265 z" />
    <g
       aria-label="batoilogic"
       id="text1041"
       style="font-size:113.505px;line-height:1.25;font-family:Montserrat;-inkscape-font-specification:Montserrat;stroke-width:1.06411">
      <path
         d="m 288.19337,143.78669 q 0,13.74474 -6.31815,22.11352 -6.31815,8.31336 -16.95924,8.31336 -11.36158,0 -17.56889,-8.03625 l -0.4988,6.9278 h -9.4218 V 87.97637 h 10.25314 v 31.75701 q 6.2073,-7.70371 17.12551,-7.70371 10.9182,0 17.12551,8.25794 6.26272,8.25793 6.26272,22.61232 z m -10.25313,-1.16387 q 0,-10.47483 -4.04584,-16.18333 -4.04583,-5.7085 -11.63869,-5.7085 -10.1423,0 -14.57608,9.4218 v 25.93766 q 4.7109,9.4218 14.68692,9.4218 7.37118,0 11.47243,-5.7085 4.10126,-5.7085 4.10126,-17.18093 z"
         style="fill:#e5690e;fill-opacity:1;stroke-width:1.06411"
         id="path28" />
      <path
         d="m 338.12892,173.10512 q -0.88676,-1.77352 -1.44098,-6.31815 -7.14949,7.4266 -17.07009,7.4266 -8.86758,0 -14.57608,-4.98802 -5.65308,-5.04343 -5.65308,-12.74714 0,-9.36638 7.09406,-14.52066 7.14949,-5.2097 20.0629,-5.2097 h 9.97602 v -4.7109 q 0,-5.37597 -3.21449,-8.53505 -3.2145,-3.21449 -9.47723,-3.21449 -5.48681,0 -9.20011,2.77111 -3.7133,2.77112 -3.7133,6.70611 h -10.30856 q 0,-4.48921 3.15908,-8.64589 3.21449,-4.2121 8.64588,-6.65068 5.48682,-2.43859 12.02666,-2.43859 10.36398,0 16.23875,5.20971 5.87477,5.15428 6.09646,14.24354 v 27.60034 q 0,8.25793 2.10605,13.1351 v 0.88676 z m -17.01466,-7.81456 q 4.82174,0 9.14469,-2.494 4.32294,-2.49401 6.26272,-6.48442 v -12.30376 h -8.03624 q -18.8436,0 -18.8436,11.02905 0,4.82174 3.21449,7.53744 3.2145,2.71569 8.25794,2.71569 z"
         style="fill:#e5690e;fill-opacity:1;stroke-width:1.06411"
         id="path30" />
      <path
         d="m 376.75831,98.617463 v 14.520657 h 11.19532 v 7.9254 h -11.19532 v 37.1884 q 0,3.60246 1.4964,5.4314 1.49641,1.77351 5.09886,1.77351 1.77352,0 4.87717,-0.66507 v 8.31336 q -4.04583,1.10845 -7.86998,1.10845 -6.87237,0 -10.36398,-4.15668 -3.49161,-4.15668 -3.49161,-11.80497 v -37.1884 h -10.9182 v -7.9254 h 10.9182 V 98.617463 Z"
         style="fill:#e5690e;fill-opacity:1;stroke-width:1.06411"
         id="path32" />
      <path
         d="m 396.10072,142.5674 q 0,-8.81216 3.43618,-15.8508 3.49161,-7.03864 9.64349,-10.86278 6.20731,-3.82415 14.13271,-3.82415 12.24834,0 19.78578,8.47963 7.59286,8.47962 7.59286,22.5569 v 0.72049 q 0,8.75673 -3.38076,15.73995 -3.32534,6.92779 -9.58807,10.80736 -6.2073,3.87957 -14.29897,3.87957 -12.19292,0 -19.78578,-8.47963 -7.53744,-8.47962 -7.53744,-22.44605 z m 10.30856,1.21929 q 0,9.97602 4.60005,16.01706 4.65548,6.04104 12.41461,6.04104 7.81455,0 12.41461,-6.09646 4.60006,-6.15188 4.60006,-17.18093 0,-9.86518 -4.7109,-15.96164 -4.65548,-6.15189 -12.41461,-6.15189 -7.59287,0 -12.24835,6.04104 -4.65547,6.04104 -4.65547,17.29178 z"
         style="fill:#e5690e;fill-opacity:1;stroke-width:1.06411"
         id="path34" />
      <path
         d="m 474.68963,173.10512 h -10.25314 v -59.967 h 10.25314 z M 463.60516,97.231904 q 0,-2.494006 1.4964,-4.212099 1.55183,-1.718093 4.54463,-1.718093 2.99281,0 4.54464,1.718093 1.55182,1.718093 1.55182,4.212099 0,2.494007 -1.55182,4.156676 -1.55183,1.66267 -4.54464,1.66267 -2.9928,0 -4.54463,-1.66267 -1.4964,-1.662669 -1.4964,-4.156676 z"
         style="fill:#e5690e;fill-opacity:1;stroke-width:1.06411"
         id="path36" />
      <path
         d="M 502.23454,173.10512 H 491.9814 V 87.97637 h 10.25314 z"
         style="fill:#e03b07;fill-opacity:1;stroke-width:1.06411"
         id="path38" />
      <path
         d="m 515.92387,142.5674 q 0,-8.81216 3.43618,-15.8508 3.49161,-7.03864 9.64349,-10.86278 6.20731,-3.82415 14.13271,-3.82415 12.24834,0 19.78578,8.47963 7.59286,8.47962 7.59286,22.5569 v 0.72049 q 0,8.75673 -3.38076,15.73995 -3.32534,6.92779 -9.58807,10.80736 -6.2073,3.87957 -14.29897,3.87957 -12.19292,0 -19.78578,-8.47963 -7.53744,-8.47962 -7.53744,-22.44605 z m 10.30856,1.21929 q 0,9.97602 4.60005,16.01706 4.65548,6.04104 12.41461,6.04104 7.81455,0 12.41461,-6.09646 4.60006,-6.15188 4.60006,-17.18093 0,-9.86518 -4.7109,-15.96164 -4.65548,-6.15189 -12.41461,-6.15189 -7.59287,0 -12.24835,6.04104 -4.65547,6.04104 -4.65547,17.29178 z"
         style="fill:#e03b07;fill-opacity:1;stroke-width:1.06411"
         id="path40" />
      <path
         d="m 580.93429,142.62282 q 0,-14.02186 6.48441,-22.27979 6.48442,-8.31336 17.18093,-8.31336 10.97363,0 17.12551,7.75914 l 0.49881,-6.65069 h 9.36637 v 58.52602 q 0,11.63869 -6.92779,18.3448 -6.87237,6.7061 -18.51107,6.7061 -6.48442,0 -12.69172,-2.77111 -6.2073,-2.77112 -9.47722,-7.59287 l 5.32054,-6.15188 q 6.59526,8.14709 16.12791,8.14709 7.48202,0 11.6387,-4.2121 4.2121,-4.2121 4.2121,-11.86039 v -5.15428 q -6.15189,7.09407 -16.79298,7.09407 -10.53025,0 -17.07009,-8.47963 -6.48441,-8.47962 -6.48441,-23.11112 z m 10.30856,1.16387 q 0,10.14229 4.15667,15.96164 4.15668,5.76392 11.6387,5.76392 9.69891,0 14.24355,-8.81215 v -27.37865 q -4.71091,-8.59046 -14.13271,-8.59046 -7.48202,0 -11.69412,5.81934 -4.21209,5.81935 -4.21209,17.23636 z"
         style="fill:#e03b07;fill-opacity:1;stroke-width:1.06411"
         id="path42" />
      <path
         d="m 658.19306,173.10512 h -10.25313 v -59.967 h 10.25313 z M 647.10859,97.231904 q 0,-2.494006 1.4964,-4.212099 1.55183,-1.718093 4.54464,-1.718093 2.9928,0 4.54463,1.718093 1.55183,1.718093 1.55183,4.212099 0,2.494007 -1.55183,4.156676 -1.55183,1.66267 -4.54463,1.66267 -2.99281,0 -4.54464,-1.66267 -1.4964,-1.662669 -1.4964,-4.156676 z"
         style="fill:#e03b07;fill-opacity:1;stroke-width:1.06411"
         id="path44" />
      <path
         d="m 698.65139,165.84479 q 5.48682,0 9.58807,-3.32534 4.10126,-3.32535 4.54464,-8.31336 h 9.69891 q -0.27711,5.15428 -3.54703,9.80976 -3.26992,4.65548 -8.75673,7.4266 -5.4314,2.77112 -11.52786,2.77112 -12.24834,0 -19.50867,-8.14709 -7.2049,-8.20251 -7.2049,-22.39064 v -1.71809 q 0,-8.75673 3.21449,-15.57368 3.2145,-6.81695 9.20012,-10.58567 6.04103,-3.76873 14.24354,-3.76873 10.08687,0 16.73756,6.04104 6.7061,6.04104 7.14948,15.68453 h -9.69891 q -0.44338,-5.81935 -4.43379,-9.53265 -3.93499,-3.76872 -9.75434,-3.76872 -7.81455,0 -12.1375,5.65308 -4.26752,5.59766 -4.26752,16.23876 v 1.93978 q 0,10.36398 4.26752,15.96164 4.26753,5.59766 12.19292,5.59766 z"
         style="fill:#e03b07;fill-opacity:1;stroke-width:1.06411"
         id="path46" />
    </g>
  </g>
</svg>
